<?xml version="1.0" encoding="UTF-8" standalone="no"?>
<svg
   width="24"
   height="24"
   viewBox="0 0 24 24"
   fill="none"
   stroke="currentColor"
   stroke-width="2"
   stroke-linecap="round"
   stroke-linejoin="round"
   class="lucide lucide-map"
   version="1.1"
   id="svg3"
   sodipodi:docname="map (1).svg"
   inkscape:version="1.4 (86a8ad7, 2024-10-11)"
   xmlns:inkscape="http://www.inkscape.org/namespaces/inkscape"
   xmlns:sodipodi="http://sodipodi.sourceforge.net/DTD/sodipodi-0.dtd"
   xmlns="http://www.w3.org/2000/svg"
   xmlns:svg="http://www.w3.org/2000/svg">
  <defs
     id="defs3" />
  <sodipodi:namedview
     id="namedview3"
     pagecolor="#505050"
     bordercolor="#eeeeee"
     borderopacity="1"
     inkscape:showpageshadow="0"
     inkscape:pageopacity="0"
     inkscape:pagecheckerboard="0"
     inkscape:deskcolor="#505050"
     inkscape:zoom="16"
     inkscape:cx="17.53125"
     inkscape:cy="23.09375"
     inkscape:window-width="3440"
     inkscape:window-height="1351"
     inkscape:window-x="2391"
     inkscape:window-y="-9"
     inkscape:window-maximized="1"
     inkscape:current-layer="svg3" />
  <path
     d="M14.106 5.553a2 2 0 0 0 1.788 0l3.659-1.83A1 1 0 0 1 21 4.619v12.764a1 1 0 0 1-.553.894l-4.553 2.277a2 2 0 0 1-1.788 0l-4.212-2.106a2 2 0 0 0-1.788 0l-3.659 1.83A1 1 0 0 1 3 19.381V6.618a1 1 0 0 1 .553-.894l4.553-2.277a2 2 0 0 1 1.788 0z"
     id="path1" />
  <path
     d="M15 5.764v15"
     id="path2" />
  <path
     d="M9 3.236v15"
     id="path3" />
  <path
     style="fill:#0088d3;fill-opacity:1;stroke-width:0.0423654"
     d="m 14.637246,21.733101 c -0.234465,-0.03267 -0.447098,-0.08559 -0.656663,-0.163425 -0.11068,-0.04111 -1.18834,-0.568256 -2.394801,-1.171439 -1.20646,-0.603183 -2.2448185,-1.111917 -2.3074629,-1.13052 -0.1459427,-0.04334 -0.405407,-0.04334 -0.5513578,4e-6 -0.062653,0.01861 -0.9709811,0.462384 -2.0185074,0.986172 -1.1113677,0.555711 -1.9808267,0.977692 -2.0876356,1.013206 -0.362558,0.120553 -0.7437017,0.134815 -1.1091605,0.0415 C 2.8910867,21.150159 2.3749355,20.687136 2.1394779,20.077665 2.0039389,19.726829 2.012329,20.195812 2.0126349,12.987517 2.012903,6.6670831 2.0143493,6.4220276 2.0524678,6.2383054 2.1591871,5.7239424 2.4596281,5.2637747 2.8710411,4.9845456 3.0530586,4.8610087 7.7912132,2.4959451 8.0147625,2.417042 8.3588812,2.2955832 8.5888705,2.2587256 9.0026478,2.2587256 c 0.4259287,0 0.6681615,0.040714 1.0158522,0.1707409 0.111184,0.04158 1.189257,0.5691134 2.395718,1.1722963 1.20646,0.6031829 2.244818,1.1119171 2.307463,1.1305206 0.138742,0.041202 0.39703,0.043454 0.540455,0.00471 0.05825,-0.015735 0.97453,-0.4628428 2.036173,-0.993573 1.144843,-0.5723233 1.998345,-0.9864723 2.097588,-1.0178233 0.554424,-0.1751424 1.129222,-0.1064263 1.637972,0.1958167 0.190241,0.1130201 0.482655,0.3908097 0.604819,0.5745707 0.122095,0.1836574 0.226292,0.4087327 0.28919,0.6246812 l 0.04917,0.1688287 0.0055,6.6364836 c 0.0054,6.437165 0.0043,6.642338 -0.03452,6.831421 -0.08302,0.40415 -0.260054,0.738045 -0.542133,1.022509 -0.082,0.08269 -0.206632,0.189044 -0.276967,0.236342 -0.185265,0.124584 -4.923456,2.488961 -5.143497,2.566626 -0.292924,0.103389 -0.559333,0.150753 -0.903379,0.160608 -0.168932,0.0048 -0.369109,1.66e-4 -0.444837,-0.01039 z m 5.380406,-10.72871 c 0,-4.2064177 -0.0072,-6.3865622 -0.021,-6.3865622 -0.01155,0 -0.876598,0.4270943 -1.92233,0.9490985 -1.045732,0.522004 -1.941843,0.9644852 -1.991357,0.9832914 l -0.09003,0.034193 v 6.4094933 6.409493 l 2.012357,-1.006222 2.012356,-1.006223 z M 5.9044925,18.443517 c 1.0340825,-0.51626 1.9301942,-0.958979 1.9913592,-0.983822 l 0.1112092,-0.04517 v -6.39835 c 0,-4.2604055 -0.00709,-6.3983492 -0.021227,-6.3983492 -0.011675,0 -0.9172353,0.4480241 -2.0123566,0.9956092 L 3.9823477,6.6090473 v 6.3865617 c 0,4.206008 0.00717,6.386562 0.020997,6.386562 0.011549,0 0.8670649,-0.422394 1.9011478,-0.938654 z m 8.0972725,-5.46576 V 6.5733433 l -0.08568,-0.025669 C 13.868967,6.5335558 12.97266,6.093565 11.924295,5.5699166 10.87593,5.0462684 10.013691,4.6178288 10.008206,4.6178288 c -0.0055,0 -0.00997,2.8819863 -0.00997,6.4044142 v 6.404414 l 0.085665,0.02567 c 0.04712,0.01412 0.940761,0.453515 1.985878,0.976441 1.045117,0.522927 1.907362,0.951368 1.9161,0.952092 0.0087,7.23e-4 0.01589,-2.880671 0.01589,-6.403099 z"
     id="path4" />
</svg>
